<?xml version="1.0" encoding="utf-8"?>
<!-- Generator: Adobe Illustrator 25.0.0, SVG Export Plug-In . SVG Version: 6.00 Build 0)  -->
<svg version="1.1" id="Layer_1" xmlns="http://www.w3.org/2000/svg" xmlns:xlink="http://www.w3.org/1999/xlink" x="0px" y="0px"
	 viewBox="0 0 2000 2000" style="enable-background:new 0 0 2000 2000;" xml:space="preserve">
<style type="text/css">
	.st0{fill:#FFFFFF;}
</style>
<g>
	<g>
		<path class="st0" d="M80.2,869.4v150.2c0,42.5,51.4,63.8,81.5,33.8l150.4-150.2c30.1-30.1,8.8-81.5-33.7-81.5H128
			C101.6,821.7,80.2,843.1,80.2,869.4z"/>
	</g>
	<g>
		<path class="st0" d="M414.4,1108.1V958c0-42.5-51.4-63.8-81.5-33.8l-150.4,150.2c-30.1,30.1-8.8,81.5,33.7,81.5h150.4
			C393.1,1155.9,414.4,1134.5,414.4,1108.1z"/>
	</g>
</g>
<g>
	<path class="st0" d="M838.1,810.2v140.6h162.6V810.2h43.9v336.1h-43.9V988.8H838.1v157.6h-43.4V810.2H838.1z"/>
	<path class="st0" d="M1407.1,974.8c0,115.7-70.3,177-156.1,177c-88.8,0-151.1-68.8-151.1-170.6c0-106.7,66.3-176.5,156.1-176.5
		C1347.8,804.8,1407.1,875.1,1407.1,974.8z M1146.3,980.3c0,71.8,38.9,136.1,107.2,136.1c68.8,0,107.7-63.3,107.7-139.6
		c0-66.8-34.9-136.6-107.2-136.6C1182.2,840.2,1146.3,906.5,1146.3,980.3z"/>
	<path class="st0" d="M1457.5,1093.5c19.4,12,47.9,21.9,77.8,21.9c44.4,0,70.3-23.4,70.3-57.4c0-31.4-18-49.4-63.3-66.8
		c-54.9-19.4-88.8-47.9-88.8-95.3c0-52.4,43.4-91.3,108.7-91.3c34.4,0,59.3,8,74.3,16.5l-12,35.4c-11-6-33.4-16-63.8-16
		c-45.9,0-63.3,27.4-63.3,50.4c0,31.4,20.4,46.9,66.8,64.8c56.9,21.9,85.8,49.4,85.8,98.7c0,51.9-38.4,96.7-117.7,96.7
		c-32.4,0-67.8-9.5-85.8-21.4L1457.5,1093.5z"/>
	<path class="st0" d="M1773.2,847.2h-102.2v-36.9h248.9v36.9h-102.7v299.2h-43.9V847.2z"/>
</g>
<g>
	<rect x="463.3" y="950.9" class="st0" width="244.7" height="37.9"/>
</g>
</svg>
